<svg width="556.67538" height="535.26155" xmlns="http://www.w3.org/2000/svg" data-name="Layer 1">

 <g>
  <title>Layer 1</title>
  <circle id="svg_1" fill="#003d54" r="46" cy="484.92289" cx="262.39281"/>
  <circle id="svg_10" fill="#f2f2f2" r="24" cy="376.92289" cx="414.39281"/>
  <path id="svg_12" fill="#003d54" d="m257.46532,4.92631c-71.89185,0.50782 -130.75611,58.92987 -131.77735,130.81635c-0.00946,0.66369 -0.01381,5.33048 -0.01324,11.43422a33.74778,33.74778 0 0 0 33.74387,33.746l0.00007,0a33.76855,33.76855 0 0 0 33.76114,-33.79775c-0.00343,-4.15211 -0.00551,-7.02584 -0.00551,-7.20227a64.00037,64.00037 0 1 1 98.52027,53.8794l0.01171,0.01422s-48.02832,30.91956 -62.67089,73.33545l0.01245,0.003a94.00389,94.00389 0 0 0 -3.87354,26.76794c0,3.72538 0.21916,36.32138 0.64261,62.77767a34.78649,34.78649 0 0 0 34.79009,34.22233l0.00007,0a34.79588,34.79588 0 0 0 34.79384,-35.01061c-0.14706,-24.22912 -0.22661,-52.44168 -0.22661,-54.48939c0,-26.04473 25.12525,-51.99475 45.76367,-68.91741c23.76587,-19.48694 40.86792,-46.04291 47.73706,-75.99909a86.7618,86.7618 0 0 0 2.49927,-18.8335a132.75,132.75 0 0 0 -133.70898,-132.74656z"/>
  <circle id="svg_14" fill="#2f2e41" r="30" cy="179.91879" cx="459.44885"/>
  <polygon id="svg_15" fill="#a0616a" points="404.01202392578125,519.0524762868881 391.75299072265625,519.0524762868881 385.91998291015625,471.7644513845444 404.0150146484375,471.7644513845444 404.01202392578125,519.0524762868881 "/>
  <path id="svg_16" fill="#2f2e41" d="m382.99554,515.54851l23.64387,0a0,0 0 0 1 0,0l0,14.88687a0,0 0 0 1 0,0l-38.53073,0a0,0 0 0 1 0,0l0,0a14.88686,14.88686 0 0 1 14.88686,-14.88687z"/>
  <polygon id="svg_17" fill="#a0616a" points="499.01202392578125,519.0524762868881 486.75299072265625,519.0524762868881 480.91998291015625,471.7644513845444 499.0150146484375,471.7644513845444 499.01202392578125,519.0524762868881 "/>
  <path id="svg_18" fill="#2f2e41" d="m477.99554,515.54851l23.64387,0a0,0 0 0 1 0,0l0,14.88687a0,0 0 0 1 0,0l-38.53073,0a0,0 0 0 1 0,0l0,0a14.88686,14.88686 0 0 1 14.88686,-14.88687z"/>
  <circle id="svg_19" fill="#a0616a" r="24.56103" cy="185.53296" cx="454.88979"/>
  <path id="svg_20" fill="#2f2e41" d="m469.52892,289.32877l10.98975,-25.25a31.38253,31.38253 0 0 0 -6.94971,-35.6a31.87322,31.87322 0 0 0 -3.07031,-2.67a30.93522,30.93522 0 0 0 -18.98975,-6.57a32.179,32.179 0 0 0 -13.3999,2.98c-0.36035,0.16 -0.71,0.33 -1.07031,0.5c-0.68994,0.33 -1.36963,0.69 -2.02979,1.06a31.67823,31.67823 0 0 0 -15.70019,23.88l-4.8501,40.64c-1.21973,3.19 -44.73975,118.39 -29.51953,206.34a4.46692,4.46692 0 0 0 3.81982,3.67l15.43018,2.1a4.49661,4.49661 0 0 0 5.00976,-3.53l25.89014,-123.41a3.50323,3.50323 0 0 1 6.79981,-0.23l36.58007,129.78a4.47129,4.47129 0 0 0 4.31006,3.28a5.12184,5.12184 0 0 0 0.87012,-0.08l18.84961,-3.63a4.471,4.471 0 0 0 3.63037,-4.81c-2.77002,-30.89 -17.49023,-185.61998 -36.6001,-208.45z"/>
  <path id="svg_21" fill="#a0616a" d="m359.43935,205.97276a10.05576,10.05576 0 0 0 10.59434,11.20341l13.72894,32.99236l10.385,-15.3943l-14.62937,-28.97a10.11027,10.11027 0 0 0 -20.07892,0.16852l0.00001,0.00001z"/>
  <path id="svg_22" fill="#a0616a" d="m453.52794,322.5492a10.05577,10.05577 0 0 0 8.42651,-12.91316l28.88533,-21.03846l-17.39036,-6.51224l-24.76387,20.97687a10.11028,10.11028 0 0 0 4.84239,19.487l0,-0.00001z"/>
  <path id="svg_23" fill="#2f2e41" d="m406.43957,272.16391a17.05692,17.05692 0 0 1 -3.29834,-0.32519a16.30539,16.30539 0 0 1 -11.94751,-9.61621l-19.23438,-23.45313a4.50075,4.50075 0 0 1 1.11109,-6.68066l13.68432,-8.4707a4.50007,4.50007 0 0 1 6.21533,1.49023l13.5564,22.334l25.96143,-19.18658a9.72146,9.72146 0 0 1 11.30978,15.56156l-25.91186,23.63672a16.25271,16.25271 0 0 1 -11.44626,4.70996z"/>
  <path id="svg_24" fill="#2f2e41" d="m476.58969,307.43637c-0.03515,0 -0.07055,0 -0.10571,-0.001a4.50783,4.50783 0 0 1 -3.31079,-1.57031l-12.16626,-14.19336a4.49979,4.49979 0 0 1 0.92041,-6.67286l22.78149,-15.1875l-20.63842,-24.8125a9.721,9.721 0 0 1 14.8872,-12.18261l25.0835,24.51269a16.52481,16.52481 0 0 1 -3.67529,26.94043l-20.50122,21.75391a4.50742,4.50742 0 0 1 -3.27491,1.41311z"/>
  <path id="svg_25" fill="#e6e6e6" d="m448.64476,255.13725a4.63212,4.63212 0 0 1 -0.584,-0.03711a4.46111,4.46111 0 0 1 -3.71045,-3.06885l-9.14234,-28.02929a3.08255,3.08255 0 0 1 1.594,-3.72461l0.29663,-0.14014c0.269,-0.12793 0.5354,-0.25439 0.80737,-0.37549a32.57412,32.57412 0 0 1 13.603,-3.023a31.327,31.327 0 0 1 17.16138,5.15674a3.13007,3.13007 0 0 1 0.90136,4.29443l-17.15009,26.86774a4.45513,4.45513 0 0 1 -3.77686,2.07958z"/>
  <circle id="svg_26" fill="#2f2e41" r="9.81668" cy="156.70905" cx="483.1011"/>
  <path id="svg_27" fill="#2f2e41" d="m449.44884,145.9188l0,0a26,26 0 0 0 -26,25.99994l0,11.00006l13.5293,0l6.4707,-11l1.94141,11l41.05859,0l-11,-11.00006a26,26 0 0 0 -26,-25.99994z"/>
  <path id="svg_28" fill="#2f2e41" d="m488.14652,149.98488a15.15,15.15 0 0 1 16.48081,-10.39558c6.256,1.04586 11.20228,6.07455 14.14944,11.69107s4.30806,11.90252 6.28935,17.92793s4.79124,12.08362 9.79306,15.984s12.67721,4.9584 17.58966,0.94607a20.11809,20.11809 0 0 1 -37.47706,7.18124c-2.59206,-4.61172 -3.26121,-10.01684 -4.02988,-15.251s-1.7674,-10.6498 -4.86211,-14.94043s-8.88772,-7.09293 -13.80374,-5.13859l-4.12953,-8.00471z"/>
  <path id="svg_29" fill="#3f3d56" d="m168.94652,164.96122l0,0a33.748,33.748 0 0 1 -33.74414,-33.746c-0.00049,-6.10376 0.0039,-10.77051 0.01318,-11.4342a131.50724,131.50724 0 0 1 15.35889,-59.90875a131.80321,131.80321 0 0 0 -25.35889,75.90875c-0.00928,0.66369 -0.01367,5.33044 -0.01318,11.4342a33.748,33.748 0 0 0 33.74414,33.746l0,0a33.77281,33.77281 0 0 0 32.48779,-24.59055a33.62247,33.62247 0 0 1 -22.48779,8.59055z"/>
  <path id="svg_30" fill="#3f3d56" d="m259.75269,76.03215a64.00385,64.00385 0 0 1 55.65918,89.413a63.9972,63.9972 0 1 0 -107.42578,-66.98523a63.87073,63.87073 0 0 1 51.7666,-22.42777z"/>
  <path id="svg_31" fill="#3f3d56" d="m270.13451,374.96122l0,0a34.78682,34.78682 0 0 1 -34.79,-34.22235c-0.42334,-26.45629 -0.64258,-59.0523 -0.64258,-62.77765a94.00389,94.00389 0 0 1 3.87354,-26.76794l-0.01221,-0.003a95.069,95.069 0 0 1 5.49414,-12.70087a110.04745,110.04745 0 0 0 -15.49414,28.70087l0.01221,0.003a94.00389,94.00389 0 0 0 -3.87354,26.76794c0,3.72535 0.21924,36.32136 0.64258,62.77765a34.78682,34.78682 0 0 0 34.79,34.22235l0,0a34.80287,34.80287 0 0 0 33.40185,-25.04846a34.66005,34.66005 0 0 1 -23.40185,9.04846z"/>
  <polygon id="svg_32" fill="#ffb8b8" points="63.54100036621094,519.5084699392319 75.80000305175781,519.5074323415756 81.63299560546875,472.2194684743881 63.537994384765625,472.2204450368881 63.54100036621094,519.5084699392319 "/>
  <path transform="rotate(179.997 401.054 1262.33)" id="svg_33" fill="#2f2e41" d="m702.63008,1993.77784l38.5307,0a0,0 0 0 1 0,0l0,14.88687a0,0 0 0 1 0,0l-23.64387,0a14.88686,14.88686 0 0 1 -14.88683,-14.88686l0,0a0,0 0 0 1 0,-0.00001z"/>
  <polygon id="svg_34" fill="#ffb8b8" points="19.541000366210938,519.5084699392319 31.800003051757812,519.5074323415756 37.63299560546875,472.2194684743881 19.537994384765625,472.2204450368881 19.541000366210938,519.5084699392319 "/>
  <path transform="rotate(179.997 313.054 1262.33)" id="svg_35" fill="#2f2e41" d="m570.63008,1993.77979l38.5307,0a0,0 0 0 1 0,0l0,14.88687a0,0 0 0 1 0,0l-23.64387,0a14.88686,14.88686 0 0 1 -14.88683,-14.88686l0,0a0,0 0 0 1 0,-0.00001z"/>
  <path id="svg_36" fill="#2f2e41" d="m30.25428,504.96435l-11.975,-0.62988a4.6735,4.6735 0 0 1 -4.41851,-4.967l14.31268,-158.46594l65.911,17.78562l6.35023,-1.73241l-19.85831,140.28476a4.69622,4.69622 0 0 1 -4.35816,3.94458l-12.9089,0.60147a4.67413,4.67413 0 0 1 -4.93149,-4.79557l2.339,-84.19641a1.55813,1.55813 0 0 0 -3.0832,-0.36007l-22.55693,88.81245a4.64568,4.64568 0 0 1 -4.56913,3.7255c-0.08387,0 -0.16833,-0.00203 -0.25328,-0.0071z"/>
  <circle id="svg_37" fill="#ffb8b8" r="24.56103" cy="186.68168" cx="65.74202"/>
  <path id="svg_38" fill="#ccc" d="m24.84962,258.8406l2.70056,58.26748l0.97625,21.19852a4.64221,4.64221 0 0 0 3.07432,4.17534l63.336,22.94342a4.47742,4.47742 0 0 0 1.59954,0.28045a4.64358,4.64358 0 0 0 4.66371,-4.7881l-2.59661,-104.76714a36.93044,36.93044 0 0 0 -30.7437,-35.67716c-0.61263,-0.09345 -1.23592,-0.18695 -1.8592,-0.27006a36.24947,36.24947 0 0 0 -29.165,9.44122a37.23612,37.23612 0 0 0 -11.9859,29.196l0.00003,0.00003z"/>
  <path id="svg_39" fill="#ffb8b8" d="m125.19221,353.79879a10.06355,10.06355 0 0 1 -5.36877,-15.22659l-21.478,-28.56l18.53424,-1.14707l17.55439,27.29693a10.111,10.111 0 0 1 -9.24184,17.63673l-0.00002,0z"/>
  <path id="svg_40" fill="#ccc" d="m110.09101,333.40389a4.64437,4.64437 0 0 1 -2.54106,-2.51848l-32.35826,-77.09434a12.4634,12.4634 0 1 1 22.98438,-9.64693l32.3582,77.09534a4.679,4.679 0 0 1 -2.50048,6.11822l-14.36542,6.029a4.64165,4.64165 0 0 1 -3.57741,0.01724l0.00005,-0.00005z"/>
  <path id="svg_41" fill="#3f3d56" d="m57.84545,330.68453l31.07924,-59.50881a4.87826,4.87826 0 0 1 6.57494,-2.06344l45.11152,23.5601a4.87826,4.87826 0 0 1 2.06343,6.57494l-31.07927,59.50881a4.87827,4.87827 0 0 1 -6.57494,2.06344l-45.11148,-23.5601a4.87826,4.87826 0 0 1 -2.06344,-6.57494z"/>
  <path id="svg_42" fill="#ffb8b8" d="m78.68831,303.49645a10.06358,10.06358 0 0 0 -15.517,-4.46026l-29.77845,-19.75406l-0.05061,18.56963l28.28584,15.91191a10.111,10.111 0 0 0 17.06022,-10.26718l0,-0.00004z"/>
  <path id="svg_43" fill="#ccc" d="m41.03829,307.6725l-24.33677,-19.27776a17.16326,17.16326 0 0 1 -7.82343,-27.13518l22.09715,-28.95951a10.096,10.096 0 0 1 17.1296,10.28435l-17.48384,28.6l25.694,12.18686a4.67363,4.67363 0 0 1 1.94814,6.71958l-10.37175,16.41406a4.682,4.682 0 0 1 -3.16671,2.1111c-0.02565,0.00448 -0.05149,0.00846 -0.0773,0.0123a4.69555,4.69555 0 0 1 -3.60909,-0.9558z"/>
  <path id="svg_44" fill="#2f2e41" d="m47.18306,203.12814a2.13479,2.13479 0 0 1 1.85636,-2.81905a4.93046,4.93046 0 0 1 3.4761,1.71495a13.8334,13.8334 0 0 0 3.07115,2.63711c1.18812,0.59889 2.79953,0.51354 3.47685,-0.62824c0.63605,-1.07221 0.20023,-2.508 -0.18482,-3.75347a36.90711,36.90711 0 0 1 -1.62991,-9.77c-0.11092,-3.70032 0.41115,-7.562 2.45972,-10.44807c2.64387,-3.72475 7.37142,-5.13883 11.84544,-5.0363s8.87547,1.48362 13.30713,2.35665c1.52992,0.30139 3.32826,0.4555 4.35153,-0.73025c1.08805,-1.26082 0.68844,-3.3014 0.22563,-5.00376c-1.20094,-4.41743 -2.475,-8.98461 -5.26525,-12.55224a18.89839,18.89839 0 0 0 -12.06081,-6.79014a28.93848,28.93848 0 0 0 -13.46236,1.52838a36.09628,36.09628 0 0 0 -17.68285,12.3186a29.23592,29.23592 0 0 0 -5.57809,21.60019a26.66712,26.66712 0 0 0 9.88579,16.85462l1.90839,-1.47898z"/>
  <path id="svg_45" fill="#3f3d56" d="m252.25812,519.70289a45.99375,45.99375 0 0 1 -17.07033,-71.4888a45.99715,45.99715 0 1 0 62.56892,66.464a45.96919,45.96919 0 0 1 -45.49859,5.0248z"/>
 </g>
</svg>