<svg width="809" height="442" xmlns="http://www.w3.org/2000/svg" data-name="Layer 1">

 <g>
  <title>Layer 1</title>
  <path id="svg_1" fill="#9c9ba0" d="m786.40162,441.61385l-586,0a22.52538,22.52538 0 0 1 -22.5,-22.5l0,-284a22.52538,22.52538 0 0 1 22.5,-22.5l586,0a22.52539,22.52539 0 0 1 22.5,22.5l0,284a22.52539,22.52539 0 0 1 -22.5,22.5z"/>
  <rect id="svg_2" fill="#f0f0f0" height="2" width="438.80322" y="276.11385" x="273.44429"/>
  <rect id="svg_3" fill="#f0f0f0" height="2" width="438.80322" y="316.11385" x="273.44429"/>
  <rect id="svg_4" fill="#f0f0f0" height="2" width="438.80322" y="356.11385" x="273.44429"/>
  <g id="svg_5" opacity="0.2">
   <path id="svg_6" fill="#003d54" d="m711.88001,259.8271c-13.02531,-14.08411 -34.78828,-16.73186 -53.491,-12.46224s-35.4938,14.2598 -52.88364,22.36s-36.69793,14.48845 -55.53654,10.86521c-18.19153,-3.49879 -33.21915,-15.73208 -48.82139,-25.71924s-34.61163,-18.21645 -52.25377,-12.56592c-21.83727,6.99417 -31.899,31.44059 -47.58489,48.166a80.69368,80.69368 0 0 1 -123.922,-7.46944l0,74.73907l433.3489,0l1.14433,-97.91344z"/>
  </g>
  <rect id="svg_7" fill="#f0f0f0" height="2" width="438.80322" y="196.11385" x="273.44429"/>
  <rect id="svg_8" fill="#f0f0f0" height="2" width="438.80322" y="236.11385" x="273.44429"/>
  <path id="svg_9" fill="#003d54" d="m276.09158,283.75858c18.69218,25.24477 51.00673,38.20993 81.91642,32.13314a83.66152,83.66152 0 0 0 41.43178,-21.4017c10.37985,-9.93025 17.51826,-22.58477 26.71895,-33.5128c4.456,-5.29256 9.44009,-10.24715 15.444,-13.7671a38.96534,38.96534 0 0 1 22.68776,-5.127c17.6886,1.28417 32.88145,11.83908 47.13862,21.41117c13.85552,9.30242 28.43661,18.34568 45.52434,19.49492c17.97776,1.20911 35.45823,-5.381 51.42117,-12.96311c16.33694,-7.75978 32.26307,-16.99608 50.03455,-21.12675c14.47872,-3.36532 30.94947,-2.72871 43.94441,5.10867a39.85343,39.85343 0 0 1 8.46574,6.87971c1.32523,1.40959 3.44364,-0.71482 2.12132,-2.12132c-10.0399,-10.679 -24.81637,-14.95133 -39.16035,-14.75588c-16.73777,0.22807 -32.44429,6.64492 -47.30789,13.80359c-16.52119,7.957 -32.74531,17.10177 -50.90124,20.79388a64.41483,64.41483 0 0 1 -27.34329,0.08117c-8.27178,-1.91726 -15.945,-5.67444 -23.19837,-10.00887c-14.59194,-8.71977 -27.79349,-19.75586 -43.88756,-25.75194c-14.79108,-5.51063 -30.96071,-5.6 -44.22038,3.73271c-11.41534,8.03462 -19.01775,20.179 -27.21628,31.20075a107.14393,107.14393 0 0 1 -14.42552,16.38866a80.33259,80.33259 0 0 1 -20.6072,13.23893a78.78048,78.78048 0 0 1 -47.362,5.48566a81.16879,81.16879 0 0 1 -40.95277,-21.85489a77.57829,77.57829 0 0 1 -7.67587,-8.87578c-1.13629,-1.53463 -3.7413,-0.04019 -2.59041,1.51415l0.00007,0.00003z"/>
  <circle id="svg_10" fill="#003d54" r="10" cy="241.39412" cx="461.65693"/>
  <circle id="svg_11" fill="#003d54" r="10" cy="244.39412" cx="671.65693"/>
  <circle id="svg_12" fill="#003d54" r="10" cy="315.39412" cx="348.65693"/>
  <path id="svg_13" fill="#ffb6b6" d="m133.9743,14.60966a9.377,9.377 0 0 0 -4.285,13.72513l-28.3436,40.49362l8.8891,10.03176l33.02879,-47.99312a9.42779,9.42779 0 0 0 -9.28933,-16.25739l0.00004,0z"/>
  <polygon id="svg_14" fill="#ffb6b6" points="155.04012870788574,428.2488555908203 142.7801342010498,428.2488555908203 136.94813346862793,380.96083068847656 155.04212760925293,380.9618682861328 155.04012870788574,428.2488555908203 "/>
  <path id="svg_15" fill="#2f2e41" d="m158.16663,440.13318l-39.53076,-0.00147l0,-0.5a15.3873,15.3873 0 0 1 15.38651,-15.38623l0.001,0l24.144,0.001l-0.00075,15.8867z"/>
  <path id="svg_16" opacity="0.1" d="m13.65,435.99876l-1,-0.23l1,0.23z"/>
  <path id="svg_17" opacity="0.1" d="m14.31,436.12876l-0.49,-0.07l0.54,0.1l-0.05,-0.03z"/>
  <path id="svg_18" opacity="0.1" d="m0,430.41874z"/>
  <path id="svg_19" opacity="0.1" d="m0.02001,430.42875z"/>
  <path id="svg_20" opacity="0.1" d="m13.82,436.05875l0,0z"/>
  <polygon id="svg_21" fill="#003d54" points="123.70013236999512,254.1138458251953 136.49213981628418,415.5038604736328 158.21713066101074,415.5038604736328 164.2121410369873,254.1138458251953 123.70013236999512,254.1138458251953 "/>
  <polygon id="svg_22" fill="#003d54" points="157.70013236999512,86.85884094238281 149.04313468933105,82.48683166503906 119.2801342010498,80.54884338378906 122.4101390838623,65.68183898925781 98.93013572692871,65.68183898925781 89.88713645935059,96.87886047363281 144.8601360321045,107.00386047363281 157.70013236999512,86.85884094238281 "/>
  <circle id="svg_23" fill="#2f2e41" r="28.93994" cy="39.00531" cx="173.57499"/>
  <ellipse transform="rotate(-45 -342.937 15.7474)" id="svg_24" fill="#2f2e41" ry="8.98136" rx="11.97515" cy="361.43445" cx="0.90689"/>
  <ellipse transform="rotate(-66.8696 -272.197 237.104)" id="svg_25" fill="#2f2e41" ry="11.97515" rx="8.98136" cy="575.24697" cx="119.73692"/>
  <circle id="svg_26" fill="#ffb6b6" r="24.56103" cy="45.91394" cx="174.49283"/>
  <path id="svg_27" fill="#2f2e41" d="m148.68492,30.46513a33.40487,33.40487 0 0 0 19.09068,5.89985a20.47079,20.47079 0 0 1 -8.11361,3.338a67.35875,67.35875 0 0 0 27.514,0.1546a17.80758,17.80758 0 0 0 5.75978,-1.97823a7.28923,7.28923 0 0 0 3.55521,-4.75471c0.60365,-3.44852 -2.08348,-6.58157 -4.876,-8.69308a35.96737,35.96737 0 0 0 -30.22447,-6.03968c-3.37626,0.87272 -6.75852,2.34726 -8.9515,5.05866s-2.84257,6.8915 -0.75322,9.68353l-3.00087,-2.66894z"/>
  <polygon id="svg_28" fill="#ffb6b6" points="142.40414237976074,335.57081604003906 135.84913444519043,345.9308624267578 92.76913261413574,325.5768585205078 102.44413566589355,310.28684997558594 142.40414237976074,335.57081604003906 "/>
  <path id="svg_29" fill="#2f2e41" d="m154.11876,339.28266l-21.1365,33.40553l-0.42254,-0.26732a15.3873,15.3873 0 0 1 -4.776,-21.229l0.00052,-0.00083l12.90953,-20.40292l13.42499,8.49454z"/>
  <path id="svg_30" fill="#003d54" d="m207.07614,73.81242l-58.03335,8.6745l-9.97279,23.03184s-22.2116,10.27226 -7.44,34.93367l-17.22,62.45624s-80.556,40.875 -79.03217,68.2901s84.05217,72.51208 84.05217,72.51208l11.56862,-18.71338l-47.67857,-47.22867l44.64,-14.215l35.21,1.665s38.2542,-29.91508 15.49291,-79.76l15.69709,-46.00081l12.71609,-65.64557z"/>
  <path id="svg_31" fill="#ffb6b6" d="m164.3832,215.55895a9.377,9.377 0 0 0 8.81471,-11.35962l40.71618,-28.02294l-4.81907,-12.50716l-47.72842,33.41015a9.42779,9.42779 0 0 0 3.0166,18.47957z"/>
  <path id="svg_32" fill="#003d54" d="m194.16001,83.19259l11.91613,-9.38017s15.78611,11.94506 15.80579,20.87325s2.64274,79.78251 2.64274,79.78251l-21.28378,15.24557l-19.90088,-12.07577l13.68,-17.44925l-6.45042,-40.71268l3.59042,-36.28346z"/>
 </g>
</svg>