<svg width="598.11121" height="535.11426" xmlns="http://www.w3.org/2000/svg">

 <g>
  <title>Layer 1</title>
  <path id="svg_1" fill="#e6e6e6" d="m3.35153,120.074a4.59436,4.59436 0 0 0 -3.18166,5.65638l76.71619,273.97819a4.59431,4.59431 0 0 0 5.65637,3.1816l282.81481,-79.19052a4.59437,4.59437 0 0 0 3.18162,-5.65631l-76.71619,-273.97821a4.59434,4.59434 0 0 0 -5.65633,-3.18168l-282.81481,79.19055z"/>
  <path id="svg_2" fill="#fff" d="m86.09651,389.95286l269.50474,-75.46358l-72.98931,-260.66831l-269.50474,75.46358l72.98931,260.66831z"/>
  <path id="svg_3" fill="#e6e6e6" d="m48.73926,164.09127c-1.79809,0.50348 -2.53942,3.49029 -1.65249,6.6578s3.07152,5.335 4.86961,4.83156l122.91712,-34.41782c1.79808,-0.50348 2.53941,-3.4903 1.65248,-6.6578s-3.07151,-5.335 -4.8696,-4.83156l-122.91712,34.41782z"/>
  <path id="svg_4" fill="#e6e6e6" d="m58.63807,199.44313c-1.79808,0.50348 -2.53941,3.49029 -1.65248,6.6578s3.07151,5.335 4.8696,4.83156l122.91712,-34.41782c1.79809,-0.50348 2.53942,-3.49029 1.65249,-6.6578s-3.07152,-5.335 -4.86961,-4.83156l-122.91712,34.41782z"/>
  <path id="svg_5" fill="#e6e6e6" d="m68.42279,234.38749c-1.79809,0.50348 -2.53942,3.49026 -1.65249,6.6578s3.07152,5.335 4.86961,4.83156l122.91712,-34.41782c1.79808,-0.50348 2.53942,-3.49027 1.65248,-6.6578s-3.07151,-5.335 -4.8696,-4.83156l-122.91712,34.41782z"/>
  <path id="svg_6" fill="#e6e6e6" d="m78.3216,269.73931c-1.79809,0.50348 -2.53943,3.49027 -1.65249,6.6578s3.07151,5.335 4.8696,4.83156l122.91712,-34.41782c1.79809,-0.50348 2.53943,-3.49026 1.65249,-6.6578s-3.07152,-5.335 -4.86961,-4.83156l-122.91711,34.41782z"/>
  <path id="svg_7" fill="#e6e6e6" d="m234.0355,112.61448a5.96564,5.96564 0 1 0 3.21712,11.48936l22.97873,-6.43423a5.96564,5.96564 0 0 0 -3.21712,-11.48937l-22.97873,6.43424z"/>
  <path id="svg_8" fill="#e6e6e6" d="m243.74245,147.28113a5.96564,5.96564 0 1 0 3.21712,11.48936l22.97872,-6.43423a5.96564,5.96564 0 0 0 -3.21712,-11.48937l-22.97872,6.43424z"/>
  <path id="svg_9" fill="#e6e6e6" d="m253.44939,181.94771a5.96563,5.96563 0 1 0 3.21711,11.48936l22.97873,-6.43423a5.96564,5.96564 0 0 0 -3.21712,-11.48937l-22.97872,6.43424z"/>
  <path id="svg_10" fill="#e6e6e6" d="m263.15633,216.61434a5.96564,5.96564 0 0 0 3.21712,11.48936l22.97873,-6.43424a5.96564,5.96564 0 0 0 -3.21712,-11.48936l-22.97873,6.43424z"/>
  <path id="svg_11" fill="#003d54" d="m272.43044,276.70347a7.60151,7.60151 0 1 0 4.0993,14.63992l29.27976,-8.19858a7.6015,7.6015 0 0 0 -4.09929,-14.63992l0,0l-29.27977,8.19858z"/>
  <rect id="svg_12" fill="#e6e6e6" transform="rotate(-15.64268970489502 -406.8637390136719,-31.782430648803658) " height="2" width="225" y="428.09454" x="-23.91895"/>
  <polygon id="svg_13" fill="#a0616a" points="520.202 506.072 502.825 510.273 478.352 445.247 503.999 439.047 520.202 506.072"/>
  <path id="svg_14" fill="#2f2e41" d="m472.84524,535.11426l-0.11768,-0.48584a22.23326,22.23326 0 0 1 16.36792,-26.80518l33.99854,-8.21924l5.33618,22.07276l-55.58496,13.4375z"/>
  <polygon id="svg_15" fill="#a0616a" points="443.276 517.91 425.399 517.909 416.894 448.953 443.279 448.954 443.276 517.91"/>
  <path id="svg_16" fill="#2f2e41" d="m447.60622,535.01074l-57.18628,-0.00244l0,-0.5a22.20823,22.20823 0 0 1 22.20826,-22.20752l0.001,0l34.978,0.00147l-0.00098,22.70849z"/>
  <path id="svg_17" fill="#2f2e41" d="m416.8796,490.99032l-17.35806,-206.87128l71.856,-13.245l0.28375,-0.05127l21.03174,13.5199l-7.32031,76.13381l33.70434,118.69857l-29.10218,7.65853l-33.75812,-110.08599l-7.72546,-33.47646l-3.9592,43.50036l2.93923,107.27764l-30.59173,-3.05881z"/>
  <path id="svg_18" fill="#003d54" d="m397.29611,288.81128l-0.19011,-0.24067l24.83039,-186.9574l0.0324,-0.24493l0.1748,-0.17516c0.366,-0.366 9.06584,-8.96295 18.01419,-8.96295c1.29375,0 2.52377,-0.03276 3.70359,-0.06266c6.84753,-0.178 12.25677,-0.32041 18.68527,6.10916c6.54991,6.54919 27.91987,30.46463 27.91987,63.21913c0,31.70356 2.88689,130.22765 2.91609,131.21879l0.04094,1.39129l-1.167,-0.759c-0.288,-0.18513 -29.03062,-18.487 -53.13652,-1.47389c-7.53321,5.31739 -14.30064,7.18147 -20.08725,7.18147c-13.46793,-0.00001 -21.62167,-10.0965 -21.73666,-10.24318z"/>
  <circle id="svg_19" fill="#a0616a" transform="rotate(-28.663209915161133 -319.867645263672,199.12974548339844) " r="35.81548" cy="426.95017" cx="417.43396"/>
  <path id="svg_20" fill="#a0616a" d="m381.52985,328.9898a14.66358,14.66358 0 0 0 0.85079,-22.46873l20.33939,-47.976l-26.63143,4.9014l-15.2318,44.80741a14.743,14.743 0 0 0 20.673,20.73592l0.00005,0z"/>
  <path id="svg_21" fill="#003d54" d="m361.87935,291.67076l6.54955,-13.82749a2.693,2.693 0 0 1 -0.96728,-1.00253c-6.11913,-10.60487 30.84271,-98.6722 33.30632,-104.51364c-0.3756,-3.17705 -4.25577,-36.84436 -1.41871,-48.19259c3.33974,-13.359 10.19724,-19.58491 22.92964,-20.81814c14.04146,-1.31867 17.82978,17.74932 17.86609,17.943l0.01282,49.02l-16.11487,56.42786l-36.7518,74.97321l-25.41176,-10.00968z"/>
  <path id="svg_22" fill="#2f2e41" d="m440.93673,58.87092c-4.29338,0.55862 -7.532,-3.83417 -9.03411,-7.89482s-2.64661,-8.78808 -6.37942,-10.98156c-5.09979,-2.99674 -11.62474,0.60754 -17.45662,-0.38118c-6.586,-1.11657 -10.86811,-8.09643 -11.20372,-14.768s2.31935,-13.08815 4.92436,-19.23924l0.90945,7.64441a15.15938,15.15938 0 0 1 6.62453,-13.25057l-1.17219,11.217c0.735,-6.28405 7.50492,-11.15334 13.69633,-9.85109l-0.1846,6.6835c7.60682,-0.90452 15.28012,-1.81032 22.90947,-1.12121s15.312,3.103 21.09438,8.1275c8.64957,7.51589 11.80857,19.89169 10.748,31.30129s-5.77042,22.12808 -10.67915,32.48221c-1.23506,2.60513 -2.9433,5.54483 -5.80719,5.87668c-2.57323,0.29818 -4.92778,-1.85286 -5.72771,-4.31671s-0.4096,-5.14055 0.06946,-7.68631c0.72371,-3.84576 1.636,-7.77663 0.95558,-11.63028s-3.45273,-7.66178 -7.33739,-8.13406s-7.85964,3.9681 -5.992,7.4069l-0.95746,-1.48446z"/>
 </g>
</svg>