<svg id="Layer_1" data-name="Layer 1" xmlns="http://www.w3.org/2000/svg" viewBox="0 0 222.88 179.51"><path d="M216.75,208.31h1.79V215a9.71,9.71,0,0,1-6.48,2.24c-5.36,0-9.29-3.8-9.29-9s3.93-9,9.32-9a8.68,8.68,0,0,1,6.55,2.55l-1.16,1.18a7.45,7.45,0,1,0-5.34,12.55,7.65,7.65,0,0,0,4.61-1.36Z" transform="translate(-138.56 -61.24)" fill="#003f57"/><path d="M235.84,217.13l-4-5.67a12.47,12.47,0,0,1-1.41.08h-4.73v5.59H223.8V199.5h6.6c4.49,0,7.21,2.26,7.21,6a5.46,5.46,0,0,1-4,5.54l4.3,6Zm-.1-11.59c0-2.82-1.86-4.43-5.39-4.43h-4.68V210h4.68C233.88,210,235.74,208.31,235.74,205.54Z" transform="translate(-138.56 -61.24)" fill="#003f57"/><path d="M241.86,209.6V199.5h1.87v10c0,4.18,2,6.1,5.39,6.1s5.42-1.92,5.42-6.1v-10h1.81v10.1c0,5.06-2.72,7.68-7.23,7.68S241.86,214.66,241.86,209.6Z" transform="translate(-138.56 -61.24)" fill="#003f57"/><path d="M275.77,205.54c0,3.76-2.72,6-7.2,6h-4.74v5.57H262V199.5h6.61C273.05,199.5,275.77,201.76,275.77,205.54Zm-1.86,0c0-2.82-1.87-4.43-5.4-4.43h-4.68v8.82h4.68C272,209.93,273.91,208.31,273.91,205.54Z" transform="translate(-138.56 -61.24)" fill="#003f57"/><path d="M278.49,208.31c0-5.14,3.93-9,9.27-9a9,9,0,1,1,0,17.94C282.42,217.28,278.49,213.45,278.49,208.31Zm16.65,0a7.41,7.41,0,1,0-7.38,7.31A7.14,7.14,0,0,0,295.14,208.31Z" transform="translate(-138.56 -61.24)" fill="#003f57"/><path d="M138.56,231.69c0-5.27,4-9.07,9.45-9.07a9,9,0,0,1,7,2.94l-2.12,2a6.21,6.21,0,0,0-4.71-2.06,6.2,6.2,0,1,0,0,12.39,6.14,6.14,0,0,0,4.71-2.09l2.12,2a9,9,0,0,1-7,2.95C142.59,240.76,138.56,237,138.56,231.69Z" transform="translate(-138.56 -61.24)" fill="#003f57"/><path d="M173.8,222.87V240.5h-3.27V233h-9.12v7.55h-3.28V222.87h3.28v7.28h9.12v-7.28Z" transform="translate(-138.56 -61.24)" fill="#003f57"/><path d="M191.76,237.76v2.74H178.54V222.87h12.87v2.74h-9.6v4.59h8.52v2.7h-8.52v4.86Z" transform="translate(-138.56 -61.24)" fill="#003f57"/><path d="M195.26,232.82v-9.95h3.28v9.82c0,3.63,1.64,5.19,4.48,5.19s4.46-1.56,4.46-5.19v-9.82h3.23v9.95c0,5.14-2.9,7.94-7.71,7.94S195.26,238,195.26,232.82Z" transform="translate(-138.56 -61.24)" fill="#003f57"/><path d="M231,222.87V240.5h-2.7l-9.72-11.94V240.5h-3.25V222.87H218l9.73,11.94V222.87Z" transform="translate(-138.56 -61.24)" fill="#003f57"/><path d="M247.73,231.48h3.1v7a11.15,11.15,0,0,1-6.9,2.25c-5.47,0-9.5-3.81-9.5-9.07s4-9.07,9.55-9.07a9.1,9.1,0,0,1,7.08,2.87l-2.07,2a6.55,6.55,0,0,0-4.86-2,6.2,6.2,0,1,0,0,12.39,7.13,7.13,0,0,0,3.62-.9Z" transform="translate(-138.56 -61.24)" fill="#003f57"/><path d="M275.32,237.76v2.74H262.09V222.87H275v2.74h-9.59v4.59h8.51v2.7h-8.51v4.86Z" transform="translate(-138.56 -61.24)" fill="#003f57"/><path d="M301.59,222.87V240.5h-3.27V233H289.2v7.55h-3.28V222.87h3.28v7.28h9.12v-7.28Z" transform="translate(-138.56 -61.24)" fill="#003f57"/><path d="M306.32,222.87h3.28V240.5h-3.28Z" transform="translate(-138.56 -61.24)" fill="#003f57"/><path d="M311.66,238.21l1.87-2.24a4.27,4.27,0,0,0,3.5,2c1.81,0,2.75-1.08,2.75-3.25v-9.12H313.5v-2.74h9.55v11.69c0,4.15-2.07,6.2-5.94,6.2A6.66,6.66,0,0,1,311.66,238.21Z" transform="translate(-138.56 -61.24)" fill="#003f57"/><path d="M326.38,231.69c0-5.22,4-9.07,9.49-9.07s9.5,3.83,9.5,9.07-4,9.07-9.5,9.07S326.38,236.9,326.38,231.69Zm15.69,0a6.2,6.2,0,1,0-6.2,6.19A6,6,0,0,0,342.07,231.69Z" transform="translate(-138.56 -61.24)" fill="#003f57"/><path d="M347.36,238.64l1.13-2.55a9.72,9.72,0,0,0,5.82,1.94c2.75,0,3.91-1,3.91-2.29,0-3.8-10.48-1.31-10.48-7.86,0-2.84,2.26-5.26,7.1-5.26a11.13,11.13,0,0,1,5.87,1.56l-1,2.54a9.83,9.83,0,0,0-4.86-1.38c-2.73,0-3.83,1.06-3.83,2.39,0,3.75,10.45,1.31,10.45,7.79,0,2.82-2.29,5.24-7.13,5.24A11.36,11.36,0,0,1,347.36,238.64Z" transform="translate(-138.56 -61.24)" fill="#003f57"/><path d="M249.82,165.49a20.78,20.78,0,0,1-20.75-20.75V93a20.75,20.75,0,0,1,40.45-6.5H280.9A31.75,31.75,0,0,0,218.07,93v51.75a31.75,31.75,0,0,0,62.83,6.5H269.52A20.77,20.77,0,0,1,249.82,165.49Z" transform="translate(-138.56 -61.24)" fill="#003f57"/><path d="M281.7,113.37h-.13V100.49h-11v12.88H255.32v-21a5.5,5.5,0,0,0-11,0v53a5.5,5.5,0,0,0,11,0v-21h15.25v12.87h11V124.37h.13Z" transform="translate(-138.56 -61.24)" fill="#003f57"/></svg>